<?xml version="1.0" encoding="utf-8"?>
<!-- Generator: Adobe Illustrator 21.1.0, SVG Export Plug-In . SVG Version: 6.00 Build 0)  -->
<svg version="1.1" id="Layer_1" xmlns:ev="http://www.w3.org/2001/xml-events"
	 xmlns="http://www.w3.org/2000/svg" xmlns:xlink="http://www.w3.org/1999/xlink" x="0px" y="0px" viewBox="0 0 612 792"
	 style="enable-background:new 0 0 612 792;" xml:space="preserve">
<style type="text/css">
	.st0{fill:#FFFFFF;stroke:#FFFFFF;stroke-width:4;}
	.st1{fill:#FFFFFF;stroke:#FFFFFF;stroke-miterlimit:10;}
	.st2{fill:none;stroke:#FFFFFF;stroke-width:50;}
	.st3{fill:none;stroke:#FFFFFF;stroke-width:25;}
</style>
<line class="st0" x1="1000" y1="0" x2="1000" y2="2000"/>
<line class="st0" x1="0" y1="1000" x2="2000" y2="1000"/>
<line class="st0" x1="500" y1="0" x2="500" y2="1000"/>
<line class="st0" x1="0" y1="500" x2="1000" y2="500"/>
<line class="st0" x1="250" y1="0" x2="250" y2="500"/>
<line class="st0" x1="0" y1="250" x2="500" y2="250"/>
<polygon class="st1" points="0,0 0,62.5 250,250 250,187.5 "/>
<line class="st0" x1="375" y1="0" x2="375" y2="250"/>
<line class="st0" x1="250" y1="125" x2="500" y2="125"/>
<line class="st0" x1="312.5" y1="0" x2="312.5" y2="125"/>
<line class="st0" x1="250" y1="62.5" x2="375" y2="62.5"/>
<line class="st0" x1="281.3" y1="0" x2="281.3" y2="62.5"/>
<line class="st0" x1="250" y1="31.3" x2="312.5" y2="31.3"/>
<rect x="250" y="31.3" class="st1" width="31.3" height="31.3"/>
<line class="st0" x1="343.8" y1="62.5" x2="343.8" y2="125"/>
<line class="st0" x1="312.5" y1="93.8" x2="375" y2="93.8"/>
<rect x="343.8" y="62.5" class="st1" width="31.3" height="31.3"/>
<rect x="343.8" y="93.8" class="st1" width="31.3" height="31.3"/>
<line class="st0" x1="437.5" y1="125" x2="437.5" y2="250"/>
<line class="st0" x1="375" y1="187.5" x2="500" y2="187.5"/>
<line class="st0" x1="312.5" y1="125" x2="312.5" y2="250"/>
<line class="st0" x1="250" y1="187.5" x2="375" y2="187.5"/>
<line class="st0" x1="281.3" y1="187.5" x2="281.3" y2="250"/>
<line class="st0" x1="250" y1="218.8" x2="312.5" y2="218.8"/>
<polygon class="st1" points="500,250 500,312.5 250,500 250,437.5 "/>
<line class="st0" x1="125" y1="250" x2="125" y2="500"/>
<line class="st0" x1="0" y1="375" x2="250" y2="375"/>
<line class="st0" x1="750" y1="0" x2="750" y2="500"/>
<line class="st0" x1="500" y1="250" x2="1000" y2="250"/>
<polygon class="st1" points="750,125 713.4,213.4 625,250 536.6,213.4 500,125 536.6,36.6 625,0 713.4,36.6 "/>
<line class="st0" x1="875" y1="0" x2="875" y2="250"/>
<line class="st0" x1="750" y1="125" x2="1000" y2="125"/>
<line class="st0" x1="812.5" y1="0" x2="812.5" y2="125"/>
<line class="st0" x1="750" y1="62.5" x2="875" y2="62.5"/>
<rect x="812.5" y="62.5" class="st1" width="62.5" height="62.5"/>
<rect x="750" y="62.5" class="st1" width="62.5" height="62.5"/>
<line class="st0" x1="937.5" y1="0" x2="937.5" y2="125"/>
<line class="st0" x1="875" y1="62.5" x2="1000" y2="62.5"/>
<line class="st0" x1="906.3" y1="0" x2="906.3" y2="62.5"/>
<line class="st0" x1="875" y1="31.3" x2="937.5" y2="31.3"/>
<rect x="906.3" y="31.3" class="st1" width="31.3" height="31.3"/>
<line class="st0" x1="968.8" y1="0" x2="968.8" y2="62.5"/>
<line class="st0" x1="937.5" y1="31.3" x2="1000" y2="31.3"/>
<rect x="968.8" class="st1" width="31.3" height="31.3"/>
<line class="st0" x1="937.5" y1="125" x2="937.5" y2="250"/>
<line class="st0" x1="875" y1="187.5" x2="1000" y2="187.5"/>
<rect x="750" y="125" class="st1" width="125" height="125"/>
<line class="st0" x1="875" y1="250" x2="875" y2="500"/>
<line class="st0" x1="750" y1="375" x2="1000" y2="375"/>
<line class="st0" x1="937.5" y1="250" x2="937.5" y2="375"/>
<line class="st0" x1="875" y1="312.5" x2="1000" y2="312.5"/>
<line class="st0" x1="968.8" y1="250" x2="968.8" y2="312.5"/>
<line class="st0" x1="937.5" y1="281.3" x2="1000" y2="281.3"/>
<rect x="968.8" y="250" class="st1" width="31.3" height="31.3"/>
<line class="st0" x1="968.8" y1="312.5" x2="968.8" y2="375"/>
<line class="st0" x1="937.5" y1="343.8" x2="1000" y2="343.8"/>
<rect x="968.8" y="343.8" class="st1" width="31.3" height="31.3"/>
<rect x="875" y="312.5" class="st1" width="62.5" height="62.5"/>
<line class="st0" x1="812.5" y1="375" x2="812.5" y2="500"/>
<line class="st0" x1="750" y1="437.5" x2="875" y2="437.5"/>
<line class="st0" x1="843.8" y1="437.5" x2="843.8" y2="500"/>
<line class="st0" x1="812.5" y1="468.8" x2="875" y2="468.8"/>
<line class="st0" x1="781.3" y1="437.5" x2="781.3" y2="500"/>
<line class="st0" x1="750" y1="468.8" x2="812.5" y2="468.8"/>
<rect x="781.3" y="437.5" class="st1" width="31.3" height="31.3"/>
<rect x="781.3" y="468.8" class="st1" width="31.3" height="31.3"/>
<rect x="500" y="250" class="st1" width="250" height="250"/>
<line class="st0" x1="750" y1="500" x2="750" y2="1000"/>
<line class="st0" x1="500" y1="750" x2="1000" y2="750"/>
<line class="st0" x1="625" y1="500" x2="625" y2="750"/>
<line class="st0" x1="500" y1="625" x2="750" y2="625"/>
<line class="st0" x1="562.5" y1="500" x2="562.5" y2="625"/>
<line class="st0" x1="500" y1="562.5" x2="625" y2="562.5"/>
<line class="st0" x1="531.3" y1="500" x2="531.3" y2="562.5"/>
<line class="st0" x1="500" y1="531.3" x2="562.5" y2="531.3"/>
<line class="st0" x1="593.8" y1="500" x2="593.8" y2="562.5"/>
<line class="st0" x1="562.5" y1="531.3" x2="625" y2="531.3"/>
<line class="st0" x1="593.8" y1="562.5" x2="593.8" y2="625"/>
<line class="st0" x1="562.5" y1="593.8" x2="625" y2="593.8"/>
<rect x="562.5" y="562.5" class="st1" width="31.3" height="31.3"/>
<line class="st0" x1="531.3" y1="562.5" x2="531.3" y2="625"/>
<line class="st0" x1="500" y1="593.8" x2="562.5" y2="593.8"/>
<rect x="500" y="593.8" class="st1" width="31.3" height="31.3"/>
<polygon class="st1" points="750,687.5 731.7,731.7 687.5,750 643.3,731.7 625,687.5 643.3,643.3 687.5,625 731.7,643.3 "/>
<line class="st0" x1="562.5" y1="625" x2="562.5" y2="750"/>
<line class="st0" x1="500" y1="687.5" x2="625" y2="687.5"/>
<line class="st0" x1="593.8" y1="625" x2="593.8" y2="687.5"/>
<line class="st0" x1="562.5" y1="656.3" x2="625" y2="656.3"/>
<line class="st0" x1="593.8" y1="687.5" x2="593.8" y2="750"/>
<line class="st0" x1="562.5" y1="718.8" x2="625" y2="718.8"/>
<rect x="593.8" y="718.8" class="st1" width="31.3" height="31.3"/>
<line class="st0" x1="531.3" y1="687.5" x2="531.3" y2="750"/>
<line class="st0" x1="500" y1="718.8" x2="562.5" y2="718.8"/>
<circle class="st2" cx="875" cy="625" r="100"/>
<line class="st0" x1="875" y1="750" x2="875" y2="1000"/>
<line class="st0" x1="750" y1="875" x2="1000" y2="875"/>
<polygon class="st1" points="875,812.5 856.7,856.7 812.5,875 768.3,856.7 750,812.5 768.3,768.3 812.5,750 856.7,768.3 "/>
<line class="st0" x1="937.5" y1="750" x2="937.5" y2="875"/>
<line class="st0" x1="875" y1="812.5" x2="1000" y2="812.5"/>
<line class="st0" x1="968.8" y1="812.5" x2="968.8" y2="875"/>
<line class="st0" x1="937.5" y1="843.8" x2="1000" y2="843.8"/>
<rect x="875" y="812.5" class="st1" width="62.5" height="62.5"/>
<polygon class="st1" points="1000,937.5 981.7,981.7 937.5,1000 893.3,981.7 875,937.5 893.3,893.3 937.5,875 981.7,893.3 "/>
<line class="st0" x1="812.5" y1="875" x2="812.5" y2="1000"/>
<line class="st0" x1="750" y1="937.5" x2="875" y2="937.5"/>
<line class="st0" x1="843.8" y1="875" x2="843.8" y2="937.5"/>
<line class="st0" x1="812.5" y1="906.3" x2="875" y2="906.3"/>
<rect x="843.8" y="906.3" class="st1" width="31.3" height="31.3"/>
<line class="st0" x1="625" y1="750" x2="625" y2="1000"/>
<line class="st0" x1="500" y1="875" x2="750" y2="875"/>
<line class="st0" x1="687.5" y1="750" x2="687.5" y2="875"/>
<line class="st0" x1="625" y1="812.5" x2="750" y2="812.5"/>
<line class="st0" x1="562.5" y1="875" x2="562.5" y2="1000"/>
<line class="st0" x1="500" y1="937.5" x2="625" y2="937.5"/>
<rect x="500" y="875" class="st1" width="62.5" height="62.5"/>
<rect x="562.5" y="937.5" class="st1" width="62.5" height="62.5"/>
<line class="st0" x1="250" y1="500" x2="250" y2="1000"/>
<line class="st0" x1="0" y1="750" x2="500" y2="750"/>
<rect y="500" class="st1" width="250" height="250"/>
<line class="st0" x1="125" y1="750" x2="125" y2="1000"/>
<line class="st0" x1="0" y1="875" x2="250" y2="875"/>
<line class="st0" x1="187.5" y1="875" x2="187.5" y2="1000"/>
<line class="st0" x1="125" y1="937.5" x2="250" y2="937.5"/>
<line class="st0" x1="156.3" y1="875" x2="156.3" y2="937.5"/>
<line class="st0" x1="125" y1="906.3" x2="187.5" y2="906.3"/>
<rect x="125" y="906.3" class="st1" width="31.3" height="31.3"/>
<line class="st0" x1="218.8" y1="875" x2="218.8" y2="937.5"/>
<line class="st0" x1="187.5" y1="906.3" x2="250" y2="906.3"/>
<line class="st0" x1="218.8" y1="937.5" x2="218.8" y2="1000"/>
<line class="st0" x1="187.5" y1="968.8" x2="250" y2="968.8"/>
<line class="st0" x1="156.3" y1="937.5" x2="156.3" y2="1000"/>
<line class="st0" x1="125" y1="968.8" x2="187.5" y2="968.8"/>
<rect x="125" y="937.5" class="st1" width="31.3" height="31.3"/>
<line class="st0" x1="62.5" y1="875" x2="62.5" y2="1000"/>
<line class="st0" x1="0" y1="937.5" x2="125" y2="937.5"/>
<line class="st0" x1="93.8" y1="875" x2="93.8" y2="937.5"/>
<line class="st0" x1="62.5" y1="906.3" x2="125" y2="906.3"/>
<line class="st0" x1="1500" y1="0" x2="1500" y2="1000"/>
<line class="st0" x1="1000" y1="500" x2="2000" y2="500"/>
<line class="st0" x1="1250" y1="0" x2="1250" y2="500"/>
<line class="st0" x1="1000" y1="250" x2="1500" y2="250"/>
<rect x="1000" class="st1" width="250" height="250"/>
<line class="st0" x1="1375" y1="0" x2="1375" y2="250"/>
<line class="st0" x1="1250" y1="125" x2="1500" y2="125"/>
<polygon class="st1" points="1375,0 1375,31.3 1250,125 1250,93.8 "/>
<line class="st0" x1="1437.5" y1="125" x2="1437.5" y2="250"/>
<line class="st0" x1="1375" y1="187.5" x2="1500" y2="187.5"/>
<rect x="1375" y="125" class="st1" width="62.5" height="62.5"/>
<line class="st0" x1="1468.8" y1="125" x2="1468.8" y2="187.5"/>
<line class="st0" x1="1437.5" y1="156.3" x2="1500" y2="156.3"/>
<rect x="1468.8" y="125" class="st1" width="31.3" height="31.3"/>
<rect x="1437.5" y="187.5" class="st1" width="62.5" height="62.5"/>
<line class="st0" x1="1312.5" y1="125" x2="1312.5" y2="250"/>
<line class="st0" x1="1250" y1="187.5" x2="1375" y2="187.5"/>
<line class="st0" x1="1281.3" y1="125" x2="1281.3" y2="187.5"/>
<line class="st0" x1="1250" y1="156.3" x2="1312.5" y2="156.3"/>
<rect x="1281.3" y="125" class="st1" width="31.3" height="31.3"/>
<line class="st0" x1="1343.8" y1="125" x2="1343.8" y2="187.5"/>
<line class="st0" x1="1312.5" y1="156.3" x2="1375" y2="156.3"/>
<line class="st0" x1="1343.8" y1="187.5" x2="1343.8" y2="250"/>
<line class="st0" x1="1312.5" y1="218.8" x2="1375" y2="218.8"/>
<line class="st0" x1="1281.3" y1="187.5" x2="1281.3" y2="250"/>
<line class="st0" x1="1250" y1="218.8" x2="1312.5" y2="218.8"/>
<rect x="1250" y="218.8" class="st1" width="31.3" height="31.3"/>
<line class="st0" x1="1375" y1="250" x2="1375" y2="500"/>
<line class="st0" x1="1250" y1="375" x2="1500" y2="375"/>
<line class="st0" x1="1312.5" y1="250" x2="1312.5" y2="375"/>
<line class="st0" x1="1250" y1="312.5" x2="1375" y2="312.5"/>
<rect x="1250" y="250" class="st1" width="62.5" height="62.5"/>
<rect x="1250" y="312.5" class="st1" width="62.5" height="62.5"/>
<line class="st0" x1="1312.5" y1="375" x2="1312.5" y2="500"/>
<line class="st0" x1="1250" y1="437.5" x2="1375" y2="437.5"/>
<line class="st0" x1="1343.8" y1="375" x2="1343.8" y2="437.5"/>
<line class="st0" x1="1312.5" y1="406.3" x2="1375" y2="406.3"/>
<rect x="1343.8" y="406.3" class="st1" width="31.3" height="31.3"/>
<line class="st0" x1="1281.3" y1="437.5" x2="1281.3" y2="500"/>
<line class="st0" x1="1250" y1="468.8" x2="1312.5" y2="468.8"/>
<rect x="1281.3" y="437.5" class="st1" width="31.3" height="31.3"/>
<line class="st0" x1="1125" y1="250" x2="1125" y2="500"/>
<line class="st0" x1="1000" y1="375" x2="1250" y2="375"/>
<line class="st0" x1="1062.5" y1="250" x2="1062.5" y2="375"/>
<line class="st0" x1="1000" y1="312.5" x2="1125" y2="312.5"/>
<rect x="1000" y="250" class="st1" width="62.5" height="62.5"/>
<line class="st0" x1="1093.8" y1="312.5" x2="1093.8" y2="375"/>
<line class="st0" x1="1062.5" y1="343.8" x2="1125" y2="343.8"/>
<line class="st0" x1="1031.3" y1="312.5" x2="1031.3" y2="375"/>
<line class="st0" x1="1000" y1="343.8" x2="1062.5" y2="343.8"/>
<line class="st0" x1="1187.5" y1="375" x2="1187.5" y2="500"/>
<line class="st0" x1="1125" y1="437.5" x2="1250" y2="437.5"/>
<line class="st0" x1="1156.3" y1="375" x2="1156.3" y2="437.5"/>
<line class="st0" x1="1125" y1="406.3" x2="1187.5" y2="406.3"/>
<rect x="1125" y="375" class="st1" width="31.3" height="31.3"/>
<line class="st0" x1="1750" y1="500" x2="1750" y2="1000"/>
<line class="st0" x1="1500" y1="750" x2="2000" y2="750"/>
<line class="st0" x1="1625" y1="500" x2="1625" y2="750"/>
<line class="st0" x1="1500" y1="625" x2="1750" y2="625"/>
<line class="st0" x1="1562.5" y1="500" x2="1562.5" y2="625"/>
<line class="st0" x1="1500" y1="562.5" x2="1625" y2="562.5"/>
<rect x="1562.5" y="500" class="st1" width="62.5" height="62.5"/>
<line class="st0" x1="1593.8" y1="562.5" x2="1593.8" y2="625"/>
<line class="st0" x1="1562.5" y1="593.8" x2="1625" y2="593.8"/>
<line class="st0" x1="1687.5" y1="500" x2="1687.5" y2="625"/>
<line class="st0" x1="1625" y1="562.5" x2="1750" y2="562.5"/>
<rect x="1625" y="500" class="st1" width="62.5" height="62.5"/>
<line class="st0" x1="1718.8" y1="500" x2="1718.8" y2="562.5"/>
<line class="st0" x1="1687.5" y1="531.3" x2="1750" y2="531.3"/>
<rect x="1687.5" y="531.3" class="st1" width="31.3" height="31.3"/>
<line class="st0" x1="1718.8" y1="562.5" x2="1718.8" y2="625"/>
<line class="st0" x1="1687.5" y1="593.8" x2="1750" y2="593.8"/>
<line class="st0" x1="1656.3" y1="562.5" x2="1656.3" y2="625"/>
<line class="st0" x1="1625" y1="593.8" x2="1687.5" y2="593.8"/>
<circle class="st3" cx="1687.5" cy="687.5" r="50"/>
<line class="st0" x1="1875" y1="500" x2="1875" y2="750"/>
<line class="st0" x1="1750" y1="625" x2="2000" y2="625"/>
<line class="st0" x1="1812.5" y1="500" x2="1812.5" y2="625"/>
<line class="st0" x1="1750" y1="562.5" x2="1875" y2="562.5"/>
<line class="st0" x1="1781.3" y1="500" x2="1781.3" y2="562.5"/>
<line class="st0" x1="1750" y1="531.3" x2="1812.5" y2="531.3"/>
<line class="st0" x1="1843.8" y1="562.5" x2="1843.8" y2="625"/>
<line class="st0" x1="1812.5" y1="593.8" x2="1875" y2="593.8"/>
<line class="st0" x1="1937.5" y1="500" x2="1937.5" y2="625"/>
<line class="st0" x1="1875" y1="562.5" x2="2000" y2="562.5"/>
<line class="st0" x1="1968.8" y1="500" x2="1968.8" y2="562.5"/>
<line class="st0" x1="1937.5" y1="531.3" x2="2000" y2="531.3"/>
<rect x="1937.5" y="562.5" class="st1" width="62.5" height="62.5"/>
<line class="st0" x1="1937.5" y1="625" x2="1937.5" y2="750"/>
<line class="st0" x1="1875" y1="687.5" x2="2000" y2="687.5"/>
<line class="st0" x1="1906.3" y1="625" x2="1906.3" y2="687.5"/>
<line class="st0" x1="1875" y1="656.3" x2="1937.5" y2="656.3"/>
<line class="st0" x1="1968.8" y1="625" x2="1968.8" y2="687.5"/>
<line class="st0" x1="1937.5" y1="656.3" x2="2000" y2="656.3"/>
<rect x="1968.8" y="656.3" class="st1" width="31.3" height="31.3"/>
<rect x="1937.5" y="687.5" class="st1" width="62.5" height="62.5"/>
<line class="st0" x1="1875" y1="750" x2="1875" y2="1000"/>
<line class="st0" x1="1750" y1="875" x2="2000" y2="875"/>
<line class="st0" x1="1937.5" y1="750" x2="1937.5" y2="875"/>
<line class="st0" x1="1875" y1="812.5" x2="2000" y2="812.5"/>
<line class="st0" x1="1968.8" y1="750" x2="1968.8" y2="812.5"/>
<line class="st0" x1="1937.5" y1="781.3" x2="2000" y2="781.3"/>
<rect x="1968.8" y="781.3" class="st1" width="31.3" height="31.3"/>
<rect x="1937.5" y="812.5" class="st1" width="62.5" height="62.5"/>
<line class="st0" x1="1812.5" y1="875" x2="1812.5" y2="1000"/>
<line class="st0" x1="1750" y1="937.5" x2="1875" y2="937.5"/>
<rect x="1750" y="875" class="st1" width="62.5" height="62.5"/>
<line class="st0" x1="1250" y1="500" x2="1250" y2="1000"/>
<line class="st0" x1="1000" y1="750" x2="1500" y2="750"/>
<line class="st0" x1="1125" y1="750" x2="1125" y2="1000"/>
<line class="st0" x1="1000" y1="875" x2="1250" y2="875"/>
<rect x="1000" y="750" class="st1" width="125" height="125"/>
<polygon class="st1" points="1250,750 1250,781.3 1125,875 1125,843.8 "/>
<rect x="1000" y="875" class="st1" width="125" height="125"/>
<line class="st0" x1="1500" y1="1000" x2="1500" y2="2000"/>
<line class="st0" x1="1000" y1="1500" x2="2000" y2="1500"/>
<polygon class="st1" points="1000,1000 1000,1125 1500,1500 1500,1375 "/>
<line class="st0" x1="1750" y1="1000" x2="1750" y2="1500"/>
<line class="st0" x1="1500" y1="1250" x2="2000" y2="1250"/>
<line class="st0" x1="1625" y1="1000" x2="1625" y2="1250"/>
<line class="st0" x1="1500" y1="1125" x2="1750" y2="1125"/>
<polygon class="st1" points="1625,1000 1625,1031.3 1500,1125 1500,1093.8 "/>
<line class="st0" x1="1687.5" y1="1000" x2="1687.5" y2="1125"/>
<line class="st0" x1="1625" y1="1062.5" x2="1750" y2="1062.5"/>
<line class="st0" x1="1656.3" y1="1000" x2="1656.3" y2="1062.5"/>
<line class="st0" x1="1625" y1="1031.3" x2="1687.5" y2="1031.3"/>
<line class="st0" x1="1718.8" y1="1000" x2="1718.8" y2="1062.5"/>
<line class="st0" x1="1687.5" y1="1031.3" x2="1750" y2="1031.3"/>
<rect x="1687.5" y="1000" class="st1" width="31.3" height="31.3"/>
<rect x="1718.8" y="1031.3" class="st1" width="31.3" height="31.3"/>
<line class="st0" x1="1656.3" y1="1062.5" x2="1656.3" y2="1125"/>
<line class="st0" x1="1625" y1="1093.8" x2="1687.5" y2="1093.8"/>
<line class="st0" x1="1687.5" y1="1125" x2="1687.5" y2="1250"/>
<line class="st0" x1="1625" y1="1187.5" x2="1750" y2="1187.5"/>
<line class="st0" x1="1718.8" y1="1125" x2="1718.8" y2="1187.5"/>
<line class="st0" x1="1687.5" y1="1156.3" x2="1750" y2="1156.3"/>
<line class="st0" x1="1718.8" y1="1187.5" x2="1718.8" y2="1250"/>
<line class="st0" x1="1687.5" y1="1218.8" x2="1750" y2="1218.8"/>
<line class="st0" x1="1562.5" y1="1125" x2="1562.5" y2="1250"/>
<line class="st0" x1="1500" y1="1187.5" x2="1625" y2="1187.5"/>
<line class="st0" x1="1593.8" y1="1125" x2="1593.8" y2="1187.5"/>
<line class="st0" x1="1562.5" y1="1156.3" x2="1625" y2="1156.3"/>
<line class="st0" x1="1593.8" y1="1187.5" x2="1593.8" y2="1250"/>
<line class="st0" x1="1562.5" y1="1218.8" x2="1625" y2="1218.8"/>
<rect x="1562.5" y="1187.5" class="st1" width="31.3" height="31.3"/>
<line class="st0" x1="1531.3" y1="1187.5" x2="1531.3" y2="1250"/>
<line class="st0" x1="1500" y1="1218.8" x2="1562.5" y2="1218.8"/>
<rect x="1531.3" y="1218.8" class="st1" width="31.3" height="31.3"/>
<rect x="1750" y="1250" class="st1" width="250" height="250"/>
<rect x="1500" y="1250" class="st1" width="250" height="250"/>
<line class="st0" x1="1750" y1="1500" x2="1750" y2="2000"/>
<line class="st0" x1="1500" y1="1750" x2="2000" y2="1750"/>
<rect x="1500" y="1500" class="st1" width="250" height="250"/>
<line class="st0" x1="1875" y1="1500" x2="1875" y2="1750"/>
<line class="st0" x1="1750" y1="1625" x2="2000" y2="1625"/>
<polygon class="st1" points="1750,1500 1750,1531.3 1875,1625 1875,1593.8 "/>
<line class="st0" x1="1937.5" y1="1625" x2="1937.5" y2="1750"/>
<line class="st0" x1="1875" y1="1687.5" x2="2000" y2="1687.5"/>
<rect x="1937.5" y="1687.5" class="st1" width="62.5" height="62.5"/>
<line class="st0" x1="1906.3" y1="1687.5" x2="1906.3" y2="1750"/>
<line class="st0" x1="1875" y1="1718.8" x2="1937.5" y2="1718.8"/>
<rect x="1875" y="1687.5" class="st1" width="31.3" height="31.3"/>
<rect x="1906.3" y="1718.8" class="st1" width="31.3" height="31.3"/>
<line class="st0" x1="1812.5" y1="1625" x2="1812.5" y2="1750"/>
<line class="st0" x1="1750" y1="1687.5" x2="1875" y2="1687.5"/>
<rect x="1750" y="1750" class="st1" width="250" height="250"/>
<line class="st0" x1="1250" y1="1500" x2="1250" y2="2000"/>
<line class="st0" x1="1000" y1="1750" x2="1500" y2="1750"/>
<circle class="st2" cx="1125" cy="1625" r="100"/>
<line class="st0" x1="1375" y1="1500" x2="1375" y2="1750"/>
<line class="st0" x1="1250" y1="1625" x2="1500" y2="1625"/>
<line class="st0" x1="1312.5" y1="1500" x2="1312.5" y2="1625"/>
<line class="st0" x1="1250" y1="1562.5" x2="1375" y2="1562.5"/>
<line class="st0" x1="1281.3" y1="1500" x2="1281.3" y2="1562.5"/>
<line class="st0" x1="1250" y1="1531.3" x2="1312.5" y2="1531.3"/>
<rect x="1281.3" y="1500" class="st1" width="31.3" height="31.3"/>
<line class="st0" x1="1343.8" y1="1500" x2="1343.8" y2="1562.5"/>
<line class="st0" x1="1312.5" y1="1531.3" x2="1375" y2="1531.3"/>
<line class="st0" x1="1437.5" y1="1500" x2="1437.5" y2="1625"/>
<line class="st0" x1="1375" y1="1562.5" x2="1500" y2="1562.5"/>
<line class="st0" x1="1406.3" y1="1500" x2="1406.3" y2="1562.5"/>
<line class="st0" x1="1375" y1="1531.3" x2="1437.5" y2="1531.3"/>
<rect x="1406.3" y="1531.3" class="st1" width="31.3" height="31.3"/>
<line class="st0" x1="1468.8" y1="1562.5" x2="1468.8" y2="1625"/>
<line class="st0" x1="1437.5" y1="1593.8" x2="1500" y2="1593.8"/>
<rect x="1468.8" y="1562.5" class="st1" width="31.3" height="31.3"/>
<rect x="1375" y="1562.5" class="st1" width="62.5" height="62.5"/>
<line class="st0" x1="1437.5" y1="1625" x2="1437.5" y2="1750"/>
<line class="st0" x1="1375" y1="1687.5" x2="1500" y2="1687.5"/>
<line class="st0" x1="1406.3" y1="1625" x2="1406.3" y2="1687.5"/>
<line class="st0" x1="1375" y1="1656.3" x2="1437.5" y2="1656.3"/>
<line class="st0" x1="1468.8" y1="1625" x2="1468.8" y2="1687.5"/>
<line class="st0" x1="1437.5" y1="1656.3" x2="1500" y2="1656.3"/>
<rect x="1437.5" y="1656.3" class="st1" width="31.3" height="31.3"/>
<line class="st0" x1="1468.8" y1="1687.5" x2="1468.8" y2="1750"/>
<line class="st0" x1="1437.5" y1="1718.8" x2="1500" y2="1718.8"/>
<polygon class="st1" points="1250,1625 1250,1656.3 1375,1750 1375,1718.8 "/>
<circle class="st2" cx="1375" cy="1875" r="100"/>
<line class="st0" x1="500" y1="1000" x2="500" y2="2000"/>
<line class="st0" x1="0" y1="1500" x2="1000" y2="1500"/>
<line class="st0" x1="250" y1="1000" x2="250" y2="1500"/>
<line class="st0" x1="0" y1="1250" x2="500" y2="1250"/>
<line class="st0" x1="125" y1="1000" x2="125" y2="1250"/>
<line class="st0" x1="0" y1="1125" x2="250" y2="1125"/>
<line class="st0" x1="62.5" y1="1000" x2="62.5" y2="1125"/>
<line class="st0" x1="0" y1="1062.5" x2="125" y2="1062.5"/>
<line class="st0" x1="93.8" y1="1000" x2="93.8" y2="1062.5"/>
<line class="st0" x1="62.5" y1="1031.3" x2="125" y2="1031.3"/>
<line class="st0" x1="187.5" y1="1000" x2="187.5" y2="1125"/>
<line class="st0" x1="125" y1="1062.5" x2="250" y2="1062.5"/>
<rect x="125" y="1000" class="st1" width="62.5" height="62.5"/>
<rect x="125" y="1125" class="st1" width="125" height="125"/>
<polygon class="st1" points="125,1125 125,1156.3 0,1250 0,1218.8 "/>
<line class="st0" x1="375" y1="1000" x2="375" y2="1250"/>
<line class="st0" x1="250" y1="1125" x2="500" y2="1125"/>
<line class="st0" x1="312.5" y1="1000" x2="312.5" y2="1125"/>
<line class="st0" x1="250" y1="1062.5" x2="375" y2="1062.5"/>
<line class="st0" x1="343.8" y1="1000" x2="343.8" y2="1062.5"/>
<line class="st0" x1="312.5" y1="1031.3" x2="375" y2="1031.3"/>
<line class="st0" x1="343.8" y1="1062.5" x2="343.8" y2="1125"/>
<line class="st0" x1="312.5" y1="1093.8" x2="375" y2="1093.8"/>
<rect x="250" y="1062.5" class="st1" width="62.5" height="62.5"/>
<line class="st0" x1="437.5" y1="1000" x2="437.5" y2="1125"/>
<line class="st0" x1="375" y1="1062.5" x2="500" y2="1062.5"/>
<line class="st0" x1="406.3" y1="1000" x2="406.3" y2="1062.5"/>
<line class="st0" x1="375" y1="1031.3" x2="437.5" y2="1031.3"/>
<rect x="375" y="1000" class="st1" width="31.3" height="31.3"/>
<line class="st0" x1="468.8" y1="1000" x2="468.8" y2="1062.5"/>
<line class="st0" x1="437.5" y1="1031.3" x2="500" y2="1031.3"/>
<line class="st0" x1="468.8" y1="1062.5" x2="468.8" y2="1125"/>
<line class="st0" x1="437.5" y1="1093.8" x2="500" y2="1093.8"/>
<line class="st0" x1="406.3" y1="1062.5" x2="406.3" y2="1125"/>
<line class="st0" x1="375" y1="1093.8" x2="437.5" y2="1093.8"/>
<rect x="406.3" y="1062.5" class="st1" width="31.3" height="31.3"/>
<rect x="406.3" y="1093.8" class="st1" width="31.3" height="31.3"/>
<line class="st0" x1="437.5" y1="1125" x2="437.5" y2="1250"/>
<line class="st0" x1="375" y1="1187.5" x2="500" y2="1187.5"/>
<line class="st0" x1="406.3" y1="1125" x2="406.3" y2="1187.5"/>
<line class="st0" x1="375" y1="1156.3" x2="437.5" y2="1156.3"/>
<line class="st0" x1="406.3" y1="1187.5" x2="406.3" y2="1250"/>
<line class="st0" x1="375" y1="1218.8" x2="437.5" y2="1218.8"/>
<rect x="250" y="1125" class="st1" width="125" height="125"/>
<line class="st0" x1="375" y1="1250" x2="375" y2="1500"/>
<line class="st0" x1="250" y1="1375" x2="500" y2="1375"/>
<line class="st0" x1="312.5" y1="1250" x2="312.5" y2="1375"/>
<line class="st0" x1="250" y1="1312.5" x2="375" y2="1312.5"/>
<line class="st0" x1="281.3" y1="1250" x2="281.3" y2="1312.5"/>
<line class="st0" x1="250" y1="1281.3" x2="312.5" y2="1281.3"/>
<line class="st0" x1="343.8" y1="1312.5" x2="343.8" y2="1375"/>
<line class="st0" x1="312.5" y1="1343.8" x2="375" y2="1343.8"/>
<rect x="312.5" y="1312.5" class="st1" width="31.3" height="31.3"/>
<rect x="343.8" y="1312.5" class="st1" width="31.3" height="31.3"/>
<rect x="343.8" y="1343.8" class="st1" width="31.3" height="31.3"/>
<line class="st0" x1="281.3" y1="1312.5" x2="281.3" y2="1375"/>
<line class="st0" x1="250" y1="1343.8" x2="312.5" y2="1343.8"/>
<line class="st0" x1="437.5" y1="1250" x2="437.5" y2="1375"/>
<line class="st0" x1="375" y1="1312.5" x2="500" y2="1312.5"/>
<line class="st0" x1="406.3" y1="1250" x2="406.3" y2="1312.5"/>
<line class="st0" x1="375" y1="1281.3" x2="437.5" y2="1281.3"/>
<rect x="437.5" y="1250" class="st1" width="62.5" height="62.5"/>
<line class="st0" x1="468.8" y1="1312.5" x2="468.8" y2="1375"/>
<line class="st0" x1="437.5" y1="1343.8" x2="500" y2="1343.8"/>
<rect x="437.5" y="1312.5" class="st1" width="31.3" height="31.3"/>
<rect x="468.8" y="1343.8" class="st1" width="31.3" height="31.3"/>
<line class="st0" x1="406.3" y1="1312.5" x2="406.3" y2="1375"/>
<line class="st0" x1="375" y1="1343.8" x2="437.5" y2="1343.8"/>
<rect x="375" y="1343.8" class="st1" width="31.3" height="31.3"/>
<line class="st0" x1="437.5" y1="1375" x2="437.5" y2="1500"/>
<line class="st0" x1="375" y1="1437.5" x2="500" y2="1437.5"/>
<line class="st0" x1="406.3" y1="1375" x2="406.3" y2="1437.5"/>
<line class="st0" x1="375" y1="1406.3" x2="437.5" y2="1406.3"/>
<rect x="437.5" y="1375" class="st1" width="62.5" height="62.5"/>
<line class="st0" x1="312.5" y1="1375" x2="312.5" y2="1500"/>
<line class="st0" x1="250" y1="1437.5" x2="375" y2="1437.5"/>
<line class="st0" x1="281.3" y1="1375" x2="281.3" y2="1437.5"/>
<line class="st0" x1="250" y1="1406.3" x2="312.5" y2="1406.3"/>
<rect x="250" y="1406.3" class="st1" width="31.3" height="31.3"/>
<line class="st0" x1="343.8" y1="1437.5" x2="343.8" y2="1500"/>
<line class="st0" x1="312.5" y1="1468.8" x2="375" y2="1468.8"/>
<rect x="312.5" y="1437.5" class="st1" width="31.3" height="31.3"/>
<rect x="343.8" y="1437.5" class="st1" width="31.3" height="31.3"/>
<line class="st0" x1="281.3" y1="1437.5" x2="281.3" y2="1500"/>
<line class="st0" x1="250" y1="1468.8" x2="312.5" y2="1468.8"/>
<line class="st0" x1="750" y1="1000" x2="750" y2="1500"/>
<line class="st0" x1="500" y1="1250" x2="1000" y2="1250"/>
<line class="st0" x1="875" y1="1000" x2="875" y2="1250"/>
<line class="st0" x1="750" y1="1125" x2="1000" y2="1125"/>
<line class="st0" x1="812.5" y1="1000" x2="812.5" y2="1125"/>
<line class="st0" x1="750" y1="1062.5" x2="875" y2="1062.5"/>
<line class="st0" x1="781.3" y1="1062.5" x2="781.3" y2="1125"/>
<line class="st0" x1="750" y1="1093.8" x2="812.5" y2="1093.8"/>
<rect x="875" y="1000" class="st1" width="125" height="125"/>
<line class="st0" x1="875" y1="1250" x2="875" y2="1500"/>
<line class="st0" x1="750" y1="1375" x2="1000" y2="1375"/>
<rect x="750" y="1375" class="st1" width="125" height="125"/>
<line class="st0" x1="625" y1="1250" x2="625" y2="1500"/>
<line class="st0" x1="500" y1="1375" x2="750" y2="1375"/>
<circle class="st3" cx="562.5" cy="1312.5" r="50"/>
<line class="st0" x1="687.5" y1="1250" x2="687.5" y2="1375"/>
<line class="st0" x1="625" y1="1312.5" x2="750" y2="1312.5"/>
<line class="st0" x1="656.3" y1="1250" x2="656.3" y2="1312.5"/>
<line class="st0" x1="625" y1="1281.3" x2="687.5" y2="1281.3"/>
<line class="st0" x1="718.8" y1="1250" x2="718.8" y2="1312.5"/>
<line class="st0" x1="687.5" y1="1281.3" x2="750" y2="1281.3"/>
<rect x="718.8" y="1250" class="st1" width="31.3" height="31.3"/>
<line class="st0" x1="656.3" y1="1312.5" x2="656.3" y2="1375"/>
<line class="st0" x1="625" y1="1343.8" x2="687.5" y2="1343.8"/>
<rect x="625" y="1312.5" class="st1" width="31.3" height="31.3"/>
<line class="st0" x1="562.5" y1="1375" x2="562.5" y2="1500"/>
<line class="st0" x1="500" y1="1437.5" x2="625" y2="1437.5"/>
<line class="st0" x1="531.3" y1="1437.5" x2="531.3" y2="1500"/>
<line class="st0" x1="500" y1="1468.8" x2="562.5" y2="1468.8"/>
<rect x="500" y="1437.5" class="st1" width="31.3" height="31.3"/>
<rect x="500" y="1500" class="st1" width="500" height="500"/>
<line class="st0" x1="250" y1="1500" x2="250" y2="2000"/>
<line class="st0" x1="0" y1="1750" x2="500" y2="1750"/>
<line class="st0" x1="125" y1="1500" x2="125" y2="1750"/>
<line class="st0" x1="0" y1="1625" x2="250" y2="1625"/>
<line class="st0" x1="62.5" y1="1500" x2="62.5" y2="1625"/>
<line class="st0" x1="0" y1="1562.5" x2="125" y2="1562.5"/>
<line class="st0" x1="31.3" y1="1500" x2="31.3" y2="1562.5"/>
<line class="st0" x1="0" y1="1531.3" x2="62.5" y2="1531.3"/>
<rect y="1531.3" class="st1" width="31.3" height="31.3"/>
<line class="st0" x1="93.8" y1="1562.5" x2="93.8" y2="1625"/>
<line class="st0" x1="62.5" y1="1593.8" x2="125" y2="1593.8"/>
<rect x="93.8" y="1562.5" class="st1" width="31.3" height="31.3"/>
<rect y="1562.5" class="st1" width="62.5" height="62.5"/>
<line class="st0" x1="187.5" y1="1625" x2="187.5" y2="1750"/>
<line class="st0" x1="125" y1="1687.5" x2="250" y2="1687.5"/>
<line class="st0" x1="218.8" y1="1625" x2="218.8" y2="1687.5"/>
<line class="st0" x1="187.5" y1="1656.3" x2="250" y2="1656.3"/>
<line class="st0" x1="218.8" y1="1687.5" x2="218.8" y2="1750"/>
<line class="st0" x1="187.5" y1="1718.8" x2="250" y2="1718.8"/>
<rect x="218.8" y="1718.8" class="st1" width="31.3" height="31.3"/>
<rect x="125" y="1687.5" class="st1" width="62.5" height="62.5"/>
<line class="st0" x1="62.5" y1="1625" x2="62.5" y2="1750"/>
<line class="st0" x1="0" y1="1687.5" x2="125" y2="1687.5"/>
<rect x="62.5" y="1625" class="st1" width="62.5" height="62.5"/>
<line class="st0" x1="93.8" y1="1687.5" x2="93.8" y2="1750"/>
<line class="st0" x1="62.5" y1="1718.8" x2="125" y2="1718.8"/>
<rect y="1687.5" class="st1" width="62.5" height="62.5"/>
<line class="st0" x1="375" y1="1750" x2="375" y2="2000"/>
<line class="st0" x1="250" y1="1875" x2="500" y2="1875"/>
<line class="st0" x1="437.5" y1="1750" x2="437.5" y2="1875"/>
<line class="st0" x1="375" y1="1812.5" x2="500" y2="1812.5"/>
<rect x="375" y="1750" class="st1" width="62.5" height="62.5"/>
<line class="st0" x1="468.8" y1="1812.5" x2="468.8" y2="1875"/>
<line class="st0" x1="437.5" y1="1843.8" x2="500" y2="1843.8"/>
<line class="st0" x1="406.3" y1="1812.5" x2="406.3" y2="1875"/>
<line class="st0" x1="375" y1="1843.8" x2="437.5" y2="1843.8"/>
<rect x="375" y="1843.8" class="st1" width="31.3" height="31.3"/>
<line class="st0" x1="437.5" y1="1875" x2="437.5" y2="2000"/>
<line class="st0" x1="375" y1="1937.5" x2="500" y2="1937.5"/>
<line class="st0" x1="406.3" y1="1875" x2="406.3" y2="1937.5"/>
<line class="st0" x1="375" y1="1906.3" x2="437.5" y2="1906.3"/>
<line class="st0" x1="468.8" y1="1875" x2="468.8" y2="1937.5"/>
<line class="st0" x1="437.5" y1="1906.3" x2="500" y2="1906.3"/>
<rect x="468.8" y="1906.3" class="st1" width="31.3" height="31.3"/>
<line class="st0" x1="406.3" y1="1937.5" x2="406.3" y2="2000"/>
<line class="st0" x1="375" y1="1968.8" x2="437.5" y2="1968.8"/>
<line class="st0" x1="125" y1="1750" x2="125" y2="2000"/>
<line class="st0" x1="0" y1="1875" x2="250" y2="1875"/>
<line class="st0" x1="62.5" y1="1750" x2="62.5" y2="1875"/>
<line class="st0" x1="0" y1="1812.5" x2="125" y2="1812.5"/>
<line class="st0" x1="31.3" y1="1750" x2="31.3" y2="1812.5"/>
<line class="st0" x1="0" y1="1781.3" x2="62.5" y2="1781.3"/>
<line class="st0" x1="93.8" y1="1750" x2="93.8" y2="1812.5"/>
<line class="st0" x1="62.5" y1="1781.3" x2="125" y2="1781.3"/>
<line class="st0" x1="93.8" y1="1812.5" x2="93.8" y2="1875"/>
<line class="st0" x1="62.5" y1="1843.8" x2="125" y2="1843.8"/>
<line class="st0" x1="31.3" y1="1812.5" x2="31.3" y2="1875"/>
<line class="st0" x1="0" y1="1843.8" x2="62.5" y2="1843.8"/>
<rect y="1812.5" class="st1" width="31.3" height="31.3"/>
<line class="st0" x1="187.5" y1="1750" x2="187.5" y2="1875"/>
<line class="st0" x1="125" y1="1812.5" x2="250" y2="1812.5"/>
<line class="st0" x1="187.5" y1="1875" x2="187.5" y2="2000"/>
<line class="st0" x1="125" y1="1937.5" x2="250" y2="1937.5"/>
<line class="st0" x1="62.5" y1="1875" x2="62.5" y2="2000"/>
<line class="st0" x1="0" y1="1937.5" x2="125" y2="1937.5"/>
</svg>
