<?xml version="1.0" encoding="utf-8"?>
<!-- Generator: Adobe Illustrator 21.1.0, SVG Export Plug-In . SVG Version: 6.00 Build 0)  -->
<svg version="1.1" id="Layer_1" xmlns="http://www.w3.org/2000/svg" xmlns:xlink="http://www.w3.org/1999/xlink" x="0px" y="0px"
	 viewBox="0 0 488 488" style="enable-background:new 0 0 488 488;" xml:space="preserve">
<style type="text/css">
	.st0{fill:#FFF3D9;}
</style>
<path class="st0" d="M244,176c-40.7,0-77,25.7-90.5,64.1c-13.5,38.4-1.3,81.2,30.5,106.7c0.1,0.1,0.1,0.1,0.2,0.2
	c1.3,1,2.6,1.9,3.9,2.8c0.9,0.6,1.7,1.3,2.6,1.9c2.4,1.6,4.9,3.1,7.5,4.5c0.4,0.2,0.8,0.4,1.2,0.6c2.2,1.2,4.5,2.3,6.9,3.3
	c0.6,0.3,1.2,0.5,1.8,0.7c2.2,0.9,4.4,1.7,6.6,2.4c0.7,0.2,1.4,0.4,2.2,0.7c2.2,0.6,4.4,1.2,6.6,1.7c0.8,0.2,1.6,0.4,2.4,0.5
	c2.2,0.4,4.5,0.8,6.7,1c0.8,0.1,1.6,0.2,2.4,0.3c3,0.3,6.1,0.5,9.2,0.5c3.1,0,6.1-0.2,9.2-0.5c0.8-0.1,1.6-0.2,2.4-0.3
	c2.3-0.3,4.5-0.6,6.7-1c0.8-0.2,1.6-0.3,2.4-0.5c2.2-0.5,4.4-1,6.6-1.7c0.7-0.2,1.4-0.4,2.2-0.7c2.2-0.7,4.4-1.5,6.6-2.4
	c0.6-0.2,1.2-0.5,1.8-0.7c2.3-1,4.6-2.1,6.9-3.3c0.4-0.2,0.8-0.4,1.2-0.6c2.5-1.4,5-2.9,7.5-4.5c0.9-0.6,1.7-1.3,2.6-1.9
	c1.3-0.9,2.6-1.8,3.9-2.8c0.1-0.1,0.1-0.1,0.2-0.2c31.8-25.5,44-68.2,30.5-106.7C321.1,201.7,284.7,176,244,176z M212,256
	c0-17.7,14.3-32,32-32s32,14.3,32,32s-14.3,32-32,32S212,273.7,212,256z M289.3,337.8c-0.7,0.5-1.5,1-2.2,1.4
	c-1.3,0.9-2.7,1.7-4.1,2.5c-0.6,0.4-1.3,0.7-1.9,1.1c-1.7,0.9-3.4,1.7-5.2,2.5c-0.4,0.2-0.7,0.3-1.1,0.5c-4.6,1.9-9.3,3.4-14.1,4.4
	l-1.5,0.3c-1.9,0.4-3.9,0.7-5.8,0.9c-0.6,0.1-1.3,0.2-1.9,0.2c-2.5,0.2-4.9,0.4-7.4,0.4s-5-0.2-7.4-0.4c-0.6-0.1-1.3-0.1-1.9-0.2
	c-2-0.2-3.9-0.5-5.8-0.9l-1.5-0.3c-4.8-1-9.6-2.5-14.1-4.4c-0.4-0.2-0.7-0.3-1.1-0.5c-1.8-0.8-3.5-1.6-5.2-2.5
	c-0.7-0.4-1.3-0.7-2-1.1c-1.4-0.8-2.7-1.6-4.1-2.5c-0.7-0.5-1.5-0.9-2.2-1.4c-0.2-0.1-0.3-0.2-0.5-0.3c6.3-20,24.8-33.6,45.8-33.6
	s39.5,13.6,45.8,33.6C289.6,337.6,289.5,337.7,289.3,337.8z M302.6,326.3c-6.1-13.8-16.8-24.9-30.3-31.6
	c16.8-12.2,23.8-33.9,17.3-53.7c-6.4-19.8-24.9-33.1-45.6-33.1s-39.2,13.4-45.6,33.1c-6.4,19.8,0.6,41.4,17.3,53.7
	c-13.5,6.7-24.2,17.9-30.3,31.6c-29.6-31.8-28.4-81.4,2.7-111.7c31.1-30.3,80.7-30.3,111.8,0C331,244.9,332.2,294.5,302.6,326.3z"/>
<path class="st0" d="M156,392h72v16h-72V392z"/>
<path class="st0" d="M156,432h72v16h-72V432z"/>
<path class="st0" d="M260,392h72v16h-72V392z"/>
<path class="st0" d="M252,432h16v16h-16V432z"/>
<path class="st0" d="M284,432h16v16h-16V432z"/>
<path class="st0" d="M316,432h16v16h-16V432z"/>
<path class="st0" d="M148,144h56v16h-56V144z"/>
<path class="st0" d="M284,144h56v16h-56V144z"/>
<path class="st0" d="M204.8,112H124c-4.4,0-8,3.6-8,8v360c0,4.4,3.6,8,8,8h240c4.4,0,8-3.6,8-8V120c0-4.4-3.6-8-8-8h-80.8
	C280,96.3,267.7,84,252,80.8V56h24c4.4,0,8-3.6,8-8V8c0-4.4-3.6-8-8-8h-64c-4.4,0-8,3.6-8,8v40c0,4.4,3.6,8,8,8h24v24.8
	C220.3,84,208,96.3,204.8,112z M220,16h48v24h-48V16z M356,472H132V128h134.5c-3.4,9.6-12.4,16-22.5,16v16c19,0,35.4-13.4,39.2-32
	H356V472z M266.5,112h-45.1c3.3-9.6,12.4-16,22.5-16S263.2,102.4,266.5,112z"/>
</svg>
