<?xml version="1.0" encoding="utf-8"?>
<!-- Generator: Adobe Illustrator 21.1.0, SVG Export Plug-In . SVG Version: 6.00 Build 0)  -->
<svg version="1.1" id="Layer_1" xmlns="http://www.w3.org/2000/svg" xmlns:xlink="http://www.w3.org/1999/xlink" x="0px" y="0px"
	 viewBox="0 0 480 480" style="enable-background:new 0 0 480 480;" xml:space="preserve">
<style type="text/css">
	.st0{fill:#FFF3D9;}
</style>
<path class="st0" d="M472,0H8C3.6,0,0,3.6,0,8v464c0,4.4,3.6,8,8,8h464c4.4,0,8-3.6,8-8V8C480,3.6,476.4,0,472,0z M16,16h448v248H16
	V16z M104,376c4.4,0,8-3.6,8-8v-40c0-4.4,3.6-8,8-8s8,3.6,8,8v40c0,4.4,3.6,8,8,8s8-3.6,8-8v-40c0-4.4,3.6-8,8-8s8,3.6,8,8v40
	c0,4.4,3.6,8,8,8s8-3.6,8-8v-40c0-4.4,3.6-8,8-8s8,3.6,8,8v96c0,3.1,1.8,5.9,4.5,7.2c2.8,1.3,6.1,0.9,8.5-1l5-4
	c0.2-0.2,0.4-0.4,0.6-0.6c3.5-3.4,9.1-3.4,12.7,0c3.5,3.5,3.5,9.2,0,12.7L197.7,464H80V328c0-4.4,3.6-8,8-8s8,3.6,8,8v40
	C96,372.4,99.6,376,104,376z M241,438.5c1.1,4.2,3.3,8.1,6.3,11.2l14.3,14.3h-41.4l14.3-14.3C237.7,446.6,239.9,442.7,241,438.5z
	 M312,376c4.4,0,8-3.6,8-8v-40c0-4.4,3.6-8,8-8s8,3.6,8,8v40c0,4.4,3.6,8,8,8s8-3.6,8-8v-40c0-4.4,3.6-8,8-8s8,3.6,8,8v40
	c0,4.4,3.6,8,8,8s8-3.6,8-8v-40c0-4.4,3.6-8,8-8s8,3.6,8,8v136H284.3l-25.6-25.7c-3.5-3.5-3.5-9.2,0-12.7c3.4-3.3,8.8-3.4,12.4-0.3
	l2.6,3.5c2.1,2.7,5.7,3.8,8.9,2.7c3.3-1.1,5.4-4.1,5.4-7.6v-96c0-4.4,3.6-8,8-8s8,3.6,8,8v40C304,372.4,307.6,376,312,376z M464,464
	h-48v-24h32v-16h-32v-24h32v-16h-32v-24h32v-16h-32v-16c0-9.5-5.6-18-14.2-21.9c-8.6-3.9-18.7-2.3-25.8,4c-9.1-8.2-22.9-8.2-32,0
	c-9.1-8.2-22.9-8.2-32,0c-7.1-6.3-17.2-7.9-25.8-4C277.6,310,272,318.5,272,328v80c-8.8-2.5-18.2-0.1-24.7,6.3
	c-3.1,3.1-5.3,7-6.3,11.2c-1.1-4.2-3.3-8.1-6.3-11.2c-7-6.9-17.4-9.1-26.6-5.6V328c0-9.5-5.6-18-14.2-21.9c-8.6-3.9-18.7-2.3-25.8,4
	c-9.1-8.2-22.9-8.2-32,0c-9.1-8.2-22.9-8.2-32,0c-7.1-6.3-17.2-7.9-25.8-4C69.6,310,64,318.5,64,328v16H32v16h32v24H32v16h32v24H32
	v16h32v24H16V280h448V464z"/>
<path class="st0" d="M440,32H40c-4.4,0-8,3.6-8,8v200c0,4.4,3.6,8,8,8h400c4.4,0,8-3.6,8-8V40C448,35.6,444.4,32,440,32z M432,232
	H48V48h384V232z"/>
<path class="st0" d="M32,304h32v16H32V304z"/>
<path class="st0" d="M224,304h32v16h-32V304z"/>
<path class="st0" d="M224,344h32v16h-32V344z"/>
<path class="st0" d="M224,384h32v16h-32V384z"/>
<path class="st0" d="M416,304h32v16h-32V304z"/>
<path class="st0" d="M386.3,77.7l11.3-11.3l16,16l-11.3,11.3L386.3,77.7z"/>
<path class="st0" d="M338.3,77.7l11.3-11.3l64,64l-11.3,11.3L338.3,77.7z"/>
</svg>
