<?xml version="1.0" encoding="utf-8"?>
<!-- Generator: Adobe Illustrator 21.1.0, SVG Export Plug-In . SVG Version: 6.00 Build 0)  -->
<svg version="1.1" id="Layer_1" xmlns="http://www.w3.org/2000/svg" xmlns:xlink="http://www.w3.org/1999/xlink" x="0px" y="0px"
	 viewBox="0 0 480 480" style="enable-background:new 0 0 480 480;" xml:space="preserve">
<style type="text/css">
	.st0{fill:#FFF3D9;}
</style>
<path class="st0" d="M344,36c0-15.5-12.5-28-28-28h-20c0-4.4-3.6-8-8-8h-96c-4.4,0-8,3.6-8,8h-20c-15.5,0-28,12.5-28.1,27.9
	c0,15.5,12.5,28,27.9,28.1c-7.7,8.9-11.9,20.3-11.9,32h16c0-11.7,6.2-22.5,16.4-28.4c1.6,17.5,14.4,32,31.6,35.6V120h-16
	c-4.4,0-8,3.6-8,8v32h-16v16h128v-16h-16v-32c0-4.4-3.6-8-8-8h-16v-16.8c17.2-3.6,30.1-18,31.6-35.6C305.8,73.5,312,84.3,312,96h16
	c0-11.7-4.2-23.1-11.9-32C331.5,63.9,344,51.4,344,36z M164,48c-6.6,0-12-5.4-12-12s5.4-12,12-12h20v24H164z M272,160h-64v-24h64
	V160z M232,120v-16h16v16H232z M280,64c0,13.3-10.7,24-24,24h-32c-13.3,0-24-10.7-24-24V16h80V64z M316,48h-20V24h20
	c6.6,0,12,5.4,12,12S322.6,48,316,48z"/>
<path class="st0" d="M64,320c30.9,0,56-25.1,56-56s-25.1-56-56-56S8,233.1,8,264C8,294.9,33.1,320,64,320z M103.2,256H96
	c-18.7,0-34.9-13-39-31.3C78.4,220.6,99.1,234.6,103.2,256z M42,230.6C48.6,255,70.7,272,96,272h7.2c-3.6,17.8-18.7,30.9-36.8,32
	c-18.1,1.1-34.7-10.1-40.4-27.3C20.3,259.5,26.9,240.6,42,230.6z"/>
<path class="st0" d="M240,208c-30.9,0-56,25.1-56,56s25.1,56,56,56s56-25.1,56-56C296,233.1,270.9,208,240,208z M240,224
	c8.3,0,16.3,2.6,23.1,7.4c-8.9,15.2-25.2,24.6-42.8,24.6h-19.4C204.6,237.4,221,224,240,224z M240,304c-19,0-35.4-13.4-39.2-32h19.4
	c21.6,0.1,41.8-10.5,54.1-28.2c3.7,6.1,5.7,13.1,5.7,20.2C280,286.1,262.1,304,240,304z"/>
<path class="st0" d="M360,264c0,30.9,25.1,56,56,56s56-25.1,56-56s-25.1-56-56-56h-40c-4.4,0-8-3.6-8-8h-16c0,13.3,10.7,24,24,24
	h0.9C366.1,234.5,360,248.9,360,264z M456,264c0,22.1-17.9,40-40,40s-40-17.9-40-40s17.9-40,40-40C438.1,224,456,241.9,456,264z"/>
<path class="st0" d="M448,336h-59.2L352,280.7V216c0-13.3-10.7-24-24-24c-13.2,0.1-23.9,10.8-24,24v64.7L267.2,336h-54.3L176,280.7
	V216c0-13.3-10.7-24-24-24c-13.2,0.1-23.9,10.8-24,24v64.7L91.2,336H24c-13.3,0-24,10.7-24,24v112c0,4.4,3.6,8,8,8h112
	c4.4,0,8-3.6,8-8c-0.1-74.2-0.1-97.1-0.2-104.5l24.2-36.3l24,36V472c0,4.4,3.6,8,8,8h112c4.4,0,8-3.6,8-8V368c0-0.3,0-0.5,0-0.8
	l24-36l24,36V472c0,4.4,3.6,8,8,8h112c4.4,0,8-3.6,8-8V368C480,350.3,465.7,336,448,336z M113.1,360.7c-1,1.5-1.4,3.2-1.3,4.9
	c0.1,3.7,0.2,58,0.2,98.4H16V360c0-4.4,3.6-8,8-8h71.4c2.7,0,5.2-1.3,6.7-3.6l30.7-46l9.6,14.4L113.1,360.7z M289.1,360.7
	c-1.1,1.7-1.6,3.8-1.2,5.8c0.1,0.5,0.1,1,0.1,1.6v96h-96v-99.2c0-1.6-0.5-3.1-1.3-4.4l-45.3-67.9c-0.9-1.3-1.4-2.9-1.4-4.4v-72
	c0-2.2,0.9-4.2,2.4-5.7c1.5-1.5,3.5-2.3,5.6-2.3c4.4,0,8,3.6,8,8v67.1c0,1.6,0.5,3.1,1.3,4.4l40.6,60.9c1.5,2.2,4,3.6,6.7,3.6h62.9
	c2.7,0,5.2-1.3,6.7-3.6l40.6-60.9c0.9-1.3,1.3-2.9,1.3-4.4V216c0-2.2,0.9-4.2,2.4-5.7c1.5-1.5,3.5-2.3,5.6-2.3c4.4,0,8,3.6,8,8v72
	c0,1.6-0.5,3.1-1.4,4.5L289.1,360.7z M464,464h-96v-99.2c0-1.6-0.5-3.1-1.3-4.4l-29.1-43.6l9.6-14.4l30.7,46.1
	c1.5,2.2,4,3.6,6.7,3.6H448c8.8,0,16,7.2,16,16V464z"/>
</svg>
